HIERARCHY
ROOT Hips
{
	OFFSET 0.000000 71.427986 0.000000
	CHANNELS 6 Xposition Yposition Zposition Xrotation Yrotation Zrotation
	JOINT Pelvis
	{
		OFFSET 0.000000 0.000000 0.000000
		CHANNELS 3 Xrotation Yrotation Zrotation
		JOINT LeftUpLeg
		{
			OFFSET 6.797100 -2.508499 -1.318700
			CHANNELS 3 Xrotation Yrotation Zrotation
			JOINT LeftLeg
			{
				OFFSET 0.069008 -29.241863 0.690200
				CHANNELS 3 Xrotation Yrotation Zrotation
				JOINT LeftFoot
				{
					OFFSET -0.069008 -29.568123 -0.266800
					CHANNELS 3 Xrotation Yrotation Zrotation
					JOINT LeftToeBase
					{
						OFFSET 3.145500 -8.631000 16.059900
						CHANNELS 3 Xrotation Yrotation Zrotation
						End Site
						{
							OFFSET 0.000000 18.501587 0.000000
						}
					}
				}
			}
			JOINT Left_ShortSleeve
			{
				OFFSET 0.265923 -10.480953 1.153800
				CHANNELS 3 Xrotation Yrotation Zrotation
				End Site
				{
					OFFSET 1.725763 19.823879 0.000000
				}
			}
		}
		JOINT RightUpLeg
		{
			OFFSET -6.797100 -2.508499 -1.318700
			CHANNELS 3 Xrotation Yrotation Zrotation
			JOINT RightLeg
			{
				OFFSET -0.082453 -29.241932 0.688000
				CHANNELS 3 Xrotation Yrotation Zrotation
				JOINT RightFoot
				{
					OFFSET 0.082453 -29.568058 -0.264600
					CHANNELS 3 Xrotation Yrotation Zrotation
					JOINT RightToeBase
					{
						OFFSET -3.115300 -8.682800 16.113400
						CHANNELS 3 Xrotation Yrotation Zrotation
						End Site
						{
							OFFSET 0.000000 18.567114 0.000000
						}
					}
				}
			}
			JOINT Right_ShortSleeve
			{
				OFFSET -0.265923 -10.480953 1.153800
				CHANNELS 3 Xrotation Yrotation Zrotation
				End Site
				{
					OFFSET -1.725766 19.823910 0.000000
				}
			}
		}
	}
	JOINT Spine
	{
		OFFSET 0.000000 13.368103 0.470500
		CHANNELS 3 Xrotation Yrotation Zrotation
		JOINT Spine1
		{
			OFFSET 0.147000 13.837402 0.538800
			CHANNELS 3 Xrotation Yrotation Zrotation
			JOINT Spine2
			{
				OFFSET 0.168000 16.242897 -1.435500
				CHANNELS 3 Xrotation Yrotation Zrotation
				JOINT Neck
				{
					OFFSET 0.217200 18.631500 -1.679100
					CHANNELS 3 Xrotation Yrotation Zrotation
					JOINT Head
					{
						OFFSET 0.000000 6.599396 1.385900
						CHANNELS 3 Xrotation Yrotation Zrotation
						JOINT Hat
						{
							OFFSET -0.532200 27.220596 -10.096100
							CHANNELS 3 Xrotation Yrotation Zrotation
							End Site
							{
								OFFSET 0.000000 22.029861 0.000000
							}
						}
						JOINT HairD
						{
							OFFSET -10.777400 17.437393 -1.325900
							CHANNELS 3 Xrotation Yrotation Zrotation
							JOINT HairD1
							{
								OFFSET -3.290299 -11.051193 1.062200
								CHANNELS 3 Xrotation Yrotation Zrotation
								End Site
								{
									OFFSET 0.000000 11.579437 0.000000
								}
							}
						}
						JOINT HairB
						{
							OFFSET -10.777400 17.437393 1.467900
							CHANNELS 3 Xrotation Yrotation Zrotation
							JOINT HairB1
							{
								OFFSET -1.561200 -12.956299 3.590200
								CHANNELS 3 Xrotation Yrotation Zrotation
								End Site
								{
									OFFSET 0.000000 13.534866 0.000000
								}
							}
						}
						JOINT HairA
						{
							OFFSET 9.713100 17.437393 1.467900
							CHANNELS 3 Xrotation Yrotation Zrotation
							JOINT HairA1
							{
								OFFSET 1.561200 -12.956299 3.590200
								CHANNELS 3 Xrotation Yrotation Zrotation
								End Site
								{
									OFFSET 0.000000 13.534866 0.000000
								}
							}
						}
						JOINT HairC
						{
							OFFSET 9.713100 17.437393 -1.325900
							CHANNELS 3 Xrotation Yrotation Zrotation
							JOINT HairC1
							{
								OFFSET 3.290300 -11.051193 1.062200
								CHANNELS 3 Xrotation Yrotation Zrotation
								End Site
								{
									OFFSET 0.000000 11.579437 0.000000
								}
							}
						}
					}
				}
				JOINT LeftShoulder
				{
					OFFSET 5.101800 15.108002 -2.763700
					CHANNELS 3 Xrotation Yrotation Zrotation
					JOINT LeftArm
					{
						OFFSET 9.825497 2.506317 -1.597400
						CHANNELS 3 Xrotation Yrotation Zrotation
						JOINT LeftForeArm
						{
							OFFSET 21.966244 0.000000 0.000000
							CHANNELS 3 Xrotation Yrotation Zrotation
							JOINT LeftHand
							{
								OFFSET 33.879036 0.000000 0.000000
								CHANNELS 3 Xrotation Yrotation Zrotation
								JOINT LeftHandThumb1
								{
									OFFSET 6.715286 -2.359680 3.363841
									CHANNELS 3 Xrotation Yrotation Zrotation
									JOINT LeftHandThumb2
									{
										OFFSET 2.507072 -1.447464 1.447461
										CHANNELS 3 Xrotation Yrotation Zrotation
										JOINT LeftHandThumb3
										{
											OFFSET 2.898338 -1.673355 1.673357
											CHANNELS 3 Xrotation Yrotation Zrotation
											End Site
											{
												OFFSET -0.295959 3.727692 -0.131651
											}
										}
									}
								}
								JOINT LeftHandIndex1
								{
									OFFSET 14.190811 -0.254547 3.840278
									CHANNELS 3 Xrotation Yrotation Zrotation
									JOINT LeftHandIndex2
									{
										OFFSET 3.551727 0.000000 -0.000000
										CHANNELS 3 Xrotation Yrotation Zrotation
										JOINT LeftHandIndex3
										{
											OFFSET 2.894196 0.000000 0.000000
											CHANNELS 3 Xrotation Yrotation Zrotation
											End Site
											{
												OFFSET -1.000603 2.690872 0.366626
											}
										}
									}
								}
								JOINT LeftHandMiddle1
								{
									OFFSET 13.776489 0.000000 0.000000
									CHANNELS 3 Xrotation Yrotation Zrotation
									JOINT LeftHandMiddle2
									{
										OFFSET 3.438232 0.000000 0.000000
										CHANNELS 3 Xrotation Yrotation Zrotation
										JOINT LeftHandMiddle3
										{
											OFFSET 3.691551 0.000000 0.000000
											CHANNELS 3 Xrotation Yrotation Zrotation
											End Site
											{
												OFFSET -1.082298 3.499527 0.457670
											}
										}
									}
								}
								JOINT LeftHandRing1
								{
									OFFSET 13.966164 -0.268127 -3.067488
									CHANNELS 3 Xrotation Yrotation Zrotation
									JOINT LeftHandRing2
									{
										OFFSET 3.162567 0.000000 0.000000
										CHANNELS 3 Xrotation Yrotation Zrotation
										JOINT LeftHandRing3
										{
											OFFSET 3.324348 0.000000 0.000000
											CHANNELS 3 Xrotation Yrotation Zrotation
											End Site
											{
												OFFSET -0.861900 3.184998 0.405154
											}
										}
									}
								}
								JOINT LeftHandPinky1
								{
									OFFSET 13.131393 -0.168503 -5.746925
									CHANNELS 3 Xrotation Yrotation Zrotation
									JOINT LeftHandPinky2
									{
										OFFSET 2.849182 0.000000 0.000000
										CHANNELS 3 Xrotation Yrotation Zrotation
										JOINT LeftHandPinky3
										{
											OFFSET 2.805038 0.000000 0.000000
											CHANNELS 3 Xrotation Yrotation Zrotation
											End Site
											{
												OFFSET -0.882500 2.642609 0.325652
											}
										}
									}
								}
							}
							JOINT Left_Sleeve
							{
								OFFSET 6.592125 -0.646545 0.805568
								CHANNELS 3 Xrotation Yrotation Zrotation
								End Site
								{
									OFFSET -0.000179 20.275787 -0.000000
								}
							}
						}
					}
				}
				JOINT RightShoulder
				{
					OFFSET -5.731700 15.108002 -2.763700
					CHANNELS 3 Xrotation Yrotation Zrotation
					JOINT RightArm
					{
						OFFSET -9.825497 2.506317 -1.597400
						CHANNELS 3 Xrotation Yrotation Zrotation
						JOINT RightForeArm
						{
							OFFSET -21.966242 0.000000 0.000000
							CHANNELS 3 Xrotation Yrotation Zrotation
							JOINT RightHand
							{
								OFFSET -33.879032 0.000000 0.000000
								CHANNELS 3 Xrotation Yrotation Zrotation
								JOINT RightHandThumb1
								{
									OFFSET -6.715286 -2.359680 3.363841
									CHANNELS 3 Xrotation Yrotation Zrotation
									JOINT RightHandThumb2
									{
										OFFSET -2.507072 -1.447464 1.447461
										CHANNELS 3 Xrotation Yrotation Zrotation
										JOINT RightHandThumb3
										{
											OFFSET -2.898338 -1.673355 1.673357
											CHANNELS 3 Xrotation Yrotation Zrotation
											End Site
											{
												OFFSET 0.295959 3.727692 -0.131651
											}
										}
									}
								}
								JOINT RightHandIndex1
								{
									OFFSET -14.190811 -0.254547 3.840278
									CHANNELS 3 Xrotation Yrotation Zrotation
									JOINT RightHandIndex2
									{
										OFFSET -3.551727 0.000000 -0.000000
										CHANNELS 3 Xrotation Yrotation Zrotation
										JOINT RightHandIndex3
										{
											OFFSET -2.894196 0.000000 0.000000
											CHANNELS 3 Xrotation Yrotation Zrotation
											End Site
											{
												OFFSET 1.000603 2.690872 0.366626
											}
										}
									}
								}
								JOINT RightHandMiddle1
								{
									OFFSET -13.776489 0.000000 0.000000
									CHANNELS 3 Xrotation Yrotation Zrotation
									JOINT RightHandMiddle2
									{
										OFFSET -3.438232 0.000000 0.000000
										CHANNELS 3 Xrotation Yrotation Zrotation
										JOINT RightHandMiddle3
										{
											OFFSET -3.691551 0.000000 0.000000
											CHANNELS 3 Xrotation Yrotation Zrotation
											End Site
											{
												OFFSET 1.082298 3.499527 0.457670
											}
										}
									}
								}
								JOINT RightHandRing1
								{
									OFFSET -13.966164 -0.268127 -3.067488
									CHANNELS 3 Xrotation Yrotation Zrotation
									JOINT RightHandRing2
									{
										OFFSET -3.162567 0.000000 0.000000
										CHANNELS 3 Xrotation Yrotation Zrotation
										JOINT RightHandRing3
										{
											OFFSET -3.324348 0.000000 0.000000
											CHANNELS 3 Xrotation Yrotation Zrotation
											End Site
											{
												OFFSET 0.861900 3.184998 0.405154
											}
										}
									}
								}
								JOINT RightHandPinky1
								{
									OFFSET -13.131393 -0.168503 -5.746925
									CHANNELS 3 Xrotation Yrotation Zrotation
									JOINT RightHandPinky2
									{
										OFFSET -2.849182 0.000000 0.000000
										CHANNELS 3 Xrotation Yrotation Zrotation
										JOINT RightHandPinky3
										{
											OFFSET -2.805038 0.000000 0.000000
											CHANNELS 3 Xrotation Yrotation Zrotation
											End Site
											{
												OFFSET 0.882500 2.642609 0.325652
											}
										}
									}
								}
							}
							JOINT Right_Sleeve
							{
								OFFSET -6.592125 -0.646545 0.805568
								CHANNELS 3 Xrotation Yrotation Zrotation
								End Site
								{
									OFFSET 0.000179 20.275787 -0.000000
								}
							}
						}
					}
				}
				JOINT Bind_Right_JacketString
				{
					OFFSET -3.534800 11.969597 7.200700
					CHANNELS 3 Xrotation Yrotation Zrotation
					JOINT Bind_Right_JacketString1
					{
						OFFSET -0.319900 -6.102600 2.794100
						CHANNELS 3 Xrotation Yrotation Zrotation
						End Site
						{
							OFFSET 0.000000 6.719452 0.000000
						}
					}
				}
				JOINT Bind_Left_JacketString
				{
					OFFSET 2.904800 11.969597 7.200700
					CHANNELS 3 Xrotation Yrotation Zrotation
					JOINT Bind_Left_JacketString1
					{
						OFFSET 0.364800 -5.904503 3.186800
						CHANNELS 3 Xrotation Yrotation Zrotation
						End Site
						{
							OFFSET 0.000000 6.719513 0.000000
						}
					}
				}
				JOINT HairE
				{
					OFFSET 5.915200 17.612701 -11.592200
					CHANNELS 3 Xrotation Yrotation Zrotation
					JOINT HairE1
					{
						OFFSET 0.289200 -7.171898 -1.284500
						CHANNELS 3 Xrotation Yrotation Zrotation
						End Site
						{
							OFFSET 0.000000 7.291756 0.000000
						}
					}
				}
				JOINT HairF
				{
					OFFSET -0.864800 17.612701 -11.592200
					CHANNELS 3 Xrotation Yrotation Zrotation
					JOINT HairF1
					{
						OFFSET 0.000000 -14.087097 -2.127501
						CHANNELS 3 Xrotation Yrotation Zrotation
						End Site
						{
							OFFSET 0.000000 14.246841 0.000000
						}
					}
				}
				JOINT HairG
				{
					OFFSET -8.087700 17.612701 -11.592200
					CHANNELS 3 Xrotation Yrotation Zrotation
					JOINT HairG1
					{
						OFFSET -0.293600 -6.081398 -0.910100
						CHANNELS 3 Xrotation Yrotation Zrotation
						End Site
						{
							OFFSET 0.000000 6.156120 0.000000
						}
					}
				}
			}
		}
	}
	JOINT Pouch
	{
		OFFSET 0.000000 4.394501 10.847300
		CHANNELS 3 Xrotation Yrotation Zrotation
		End Site
		{
			OFFSET 0.000000 21.880577 0.000000
		}
	}
	JOINT Bag
	{
		OFFSET -13.229000 4.813004 -0.593300
		CHANNELS 3 Xrotation Yrotation Zrotation
		End Site
		{
			OFFSET 0.000000 21.880577 0.000000
		}
	}
	JOINT OccupyGuyFacialAnim_Joint
	{
		OFFSET 1.000000 -70.206398 -1.655000
		CHANNELS 3 Xrotation Yrotation Zrotation
		End Site
		{
			OFFSET 0.000000 21.880577 0.000000
		}
	}
}
MOTION
Frames: 4
Frame Time: 0.033333
-16.529280 14.402153 -66.922455 -112.352227 6.834273 17.767573 -0.000001 0.000001 -0.000001 -30.802029 13.112941 11.005421 13.939322 -5.422420 -2.548269 8.700739 16.313193 -22.561105 -0.000002 0.000003 -0.000001 0.000000 0.000000 -0.000000 -80.788338 21.353753 -10.441670 30.087267 -5.555849 -15.041581 14.329433 0.807511 12.777582 -0.000001 -0.000000 -0.000000 0.000000 0.000001 0.000000 6.050675 -1.613245 0.231535 12.130239 -3.310537 0.977837 12.130253 -3.310547 0.977834 19.009140 16.159908 6.808828 10.693870 20.862213 -18.080783 0.000000 0.000002 -0.000001 0.000000 0.000002 -0.000001 0.000000 0.000002 -0.000000 0.000000 0.000002 -0.000003 0.000000 0.000002 -0.000001 0.000000 0.000002 -0.000003 0.000000 0.000002 -0.000001 0.000000 0.000002 -0.000001 0.000000 0.000002 -0.000001 0.320006 -8.305677 0.885927 -14.801455 19.458574 -21.619301 -3.510580 -39.544726 -29.260377 -5.957477 -3.672196 33.709944 -26.752118 -17.996232 -4.020957 16.882233 17.056067 9.567089 0.000001 0.000004 -0.000001 -0.588227 -1.674967 -14.981795 -0.002854 -4.400019 -20.750163 0.000001 -0.000005 -0.000003 -5.409648 2.471361 -23.014667 -0.028724 -4.869581 -38.044557 0.000000 -0.000000 -0.000003 -4.433204 3.945579 -35.531945 -1.066414 -0.654774 -36.854147 0.000001 0.000001 0.000001 -8.821930 8.286899 -39.482680 -0.020681 -0.046496 -44.718287 -0.000002 -0.000007 0.000000 -0.000002 -0.000001 0.000001 0.455783 3.237540 4.636072 -30.415573 9.089037 67.512062 -42.840623 38.889123 100.220650 23.243306 -9.970210 17.314140 24.918359 -21.323383 30.343040 9.041916 8.262104 -18.001800 -0.000001 -0.000001 -0.000000 -0.070693 -3.035219 61.424212 0.006453 4.395155 66.609173 -0.000000 -0.000000 -0.000002 -1.235392 -0.119480 68.274277 -0.077281 4.902855 84.501878 -0.000001 0.000000 0.000001 0.883165 -4.613427 79.192949 -0.717773 1.136479 73.255753 0.000001 -0.000000 -0.000002 -3.944541 0.099982 86.764781 -0.029785 0.060126 54.415144 -0.000002 0.000001 0.000001 -0.000001 0.000001 0.000001 -0.000000 -0.000000 0.000000 -0.000000 0.000000 -0.000001 -0.000000 -0.000000 0.000000 -0.000000 -0.000000 0.000000 -0.000000 -0.000000 0.000000 -0.000000 0.000000 -0.000000 -0.000000 -0.000000 0.000000 -0.000000 -0.000000 0.000000 -0.000000 -0.000000 0.000000 -0.000000 0.000000 -0.000000 -0.000001 0.000001 -0.000001 -0.000001 0.000001 -0.000001 -0.000001 0.000001 -0.000001 
-16.840889 14.313618 -67.299553 -111.498870 3.736046 18.627652 -0.000002 0.000001 -0.000000 -30.621159 12.155373 14.160946 14.263705 1.973317 -1.188761 14.561219 14.281792 -20.017391 -0.000003 0.000002 -0.000000 -0.000002 -0.000000 0.000001 -88.030265 24.461412 -6.763652 41.439881 -3.952850 -15.673933 12.281689 0.553825 13.178228 -0.000001 0.000000 -0.000000 0.000000 0.000000 -0.000000 5.676272 -1.578785 0.068707 11.376093 -3.451059 0.620506 11.376101 -3.451059 0.620507 16.019299 15.611198 5.020405 8.717737 20.436447 -18.152887 0.000001 0.000000 -0.000001 0.000001 0.000000 -0.000001 0.000001 0.000000 0.000000 0.000001 0.000000 -0.000001 0.000001 -0.000001 0.000001 0.000001 0.000000 -0.000001 0.000001 -0.000001 0.000001 0.000001 0.000000 -0.000001 0.000001 0.000000 -0.000001 0.206605 -8.116095 -0.374791 -12.828361 22.413628 -20.565971 -7.333487 -33.377137 -27.630011 -10.670409 -7.956938 31.279493 -26.752096 -17.996232 -4.020940 16.882238 17.056062 9.567085 0.000003 0.000002 0.000000 -0.584238 -1.674587 -14.896924 -0.002713 -4.400068 -20.665439 -0.000000 -0.000005 -0.000003 -5.409649 2.471500 -22.901192 -0.028754 -4.869451 -37.931087 0.000002 -0.000001 0.000004 -4.434556 3.946743 -35.379345 -1.067958 -0.657180 -36.701741 -0.000001 -0.000001 -0.000003 -8.821908 8.287080 -39.333707 -0.020447 -0.046403 -44.569303 -0.000002 -0.000003 0.000003 -0.000001 0.000001 0.000001 0.420637 2.440970 2.836217 -29.293455 8.860540 69.244390 -42.920335 37.112458 98.273855 28.863433 -11.125155 20.603360 24.918350 -21.323383 30.343044 9.041914 8.262102 -18.001800 0.000000 -0.000001 0.000001 -0.070691 -3.035219 61.424219 0.006452 4.395158 66.609180 0.000001 -0.000000 -0.000002 -1.235392 -0.119482 68.274277 -0.077279 4.902857 84.501878 0.000003 -0.000002 -0.000001 0.883164 -4.613427 79.192949 -0.717772 1.136479 73.255746 0.000001 0.000000 0.000004 -3.944538 0.099980 86.764781 -0.029787 0.060123 54.415144 0.000001 0.000000 0.000001 -0.000002 0.000003 -0.000001 -0.000000 0.000000 -0.000001 -0.000001 0.000000 0.000001 -0.000000 0.000000 -0.000001 -0.000000 0.000000 -0.000001 -0.000000 0.000000 -0.000001 -0.000001 0.000000 0.000001 -0.000000 0.000000 -0.000001 -0.000000 0.000000 -0.000001 -0.000000 0.000000 -0.000001 -0.000001 0.000000 0.000001 -0.000002 0.000001 -0.000000 -0.000002 0.000001 -0.000000 -0.000002 0.000001 -0.000000 
-17.156361 14.027462 -67.474236 -110.299270 0.987680 19.376926 0.000000 -0.000000 -0.000001 -30.235868 11.265273 17.362158 14.377184 9.416007 0.144524 19.224457 11.566767 -16.892260 -0.000001 -0.000000 0.000000 0.000000 0.000000 -0.000004 -94.881498 27.228554 -3.345720 51.401115 -5.598021 -15.709560 12.256242 0.561572 14.145281 -0.000002 -0.000000 0.000001 -0.000001 -0.000001 -0.000000 5.268971 -1.481091 -0.019524 10.555651 -3.429087 0.381020 10.555636 -3.429084 0.381020 12.682279 14.711896 3.323531 5.645346 19.758913 -17.248454 0.000001 -0.000001 0.000001 0.000001 -0.000001 0.000001 0.000001 -0.000001 0.000002 0.000001 -0.000001 0.000001 -0.000000 -0.000001 0.000001 0.000001 -0.000001 0.000001 -0.000000 -0.000001 0.000001 0.000001 -0.000001 0.000001 0.000001 -0.000001 0.000001 0.065316 -7.962209 -2.031883 -11.198365 24.621387 -19.343786 -10.269205 -26.925014 -22.108221 -15.900376 -12.239651 27.406655 -26.752135 -17.996222 -4.020935 16.882233 17.056072 9.567070 0.000005 0.000001 -0.000003 -0.580818 -1.674021 -14.805559 -0.002538 -4.400109 -20.574229 0.000000 0.000001 0.000002 -5.409648 2.471671 -22.779022 -0.028641 -4.869337 -37.808908 0.000000 0.000004 0.000005 -4.436096 3.948001 -35.215093 -1.069609 -0.659753 -36.537646 -0.000002 0.000005 -0.000002 -8.821902 8.287309 -39.173317 -0.020480 -0.046271 -44.408934 0.000001 -0.000004 -0.000003 0.000000 0.000001 -0.000000 0.379688 2.056222 0.973726 -27.355521 8.208707 70.374417 -44.755095 32.614252 98.019300 35.434495 -11.978925 21.157218 24.918350 -21.323383 30.343044 9.041915 8.262104 -18.001799 0.000000 0.000000 0.000001 -0.070692 -3.035219 61.424219 0.006452 4.395157 66.609173 -0.000001 0.000000 -0.000001 -1.235393 -0.119481 68.274277 -0.077280 4.902858 84.501885 -0.000001 -0.000001 0.000001 0.883167 -4.613426 79.192943 -0.717773 1.136478 73.255753 -0.000000 -0.000000 0.000001 -3.944538 0.099982 86.764781 -0.029786 0.060122 54.415144 -0.000001 0.000002 -0.000001 0.000002 0.000001 0.000000 -0.000000 0.000000 0.000002 -0.000000 0.000000 0.000000 -0.000000 0.000000 0.000002 -0.000000 0.000000 0.000002 -0.000000 0.000000 0.000002 -0.000000 0.000000 0.000000 -0.000000 0.000000 0.000002 -0.000000 0.000000 0.000002 -0.000000 0.000000 0.000002 -0.000000 0.000000 0.000000 0.000000 -0.000000 -0.000001 0.000000 -0.000000 -0.000001 0.000000 -0.000000 -0.000001 
-17.482061 13.206619 -67.464828 -108.190347 -0.934529 19.875584 -0.000002 -0.000000 0.000000 -29.570235 10.361662 20.550912 12.789510 15.365475 1.483425 20.891675 10.590871 -16.287401 0.000001 0.000000 -0.000000 -0.000000 -0.000001 -0.000003 -101.603640 29.425688 -0.719495 59.514109 -10.865617 -14.624642 13.890029 0.581523 12.001384 -0.000002 0.000002 0.000001 -0.000000 0.000000 -0.000000 4.783549 -1.377707 -0.085832 9.579970 -3.337009 0.213607 9.579986 -3.337009 0.213602 9.454778 13.633547 1.757147 2.031101 18.401751 -15.031286 0.000000 0.000000 -0.000000 0.000000 0.000000 -0.000000 0.000000 0.000000 -0.000000 0.000000 0.000000 -0.000000 -0.000000 0.000001 0.000000 0.000000 0.000000 -0.000000 -0.000000 0.000001 0.000000 0.000000 0.000000 -0.000000 0.000000 0.000000 -0.000000 -0.094295 -7.821464 -3.596991 -10.691086 26.074894 -17.869059 -12.949333 -19.922207 -14.685026 -21.275276 -16.373528 22.308427 -26.752126 -17.996234 -4.020938 16.882232 17.056070 9.567081 0.000002 -0.000001 0.000002 -0.577871 -1.673208 -14.708232 -0.002303 -4.400162 -20.476998 -0.000003 -0.000001 0.000001 -5.409649 2.471848 -22.648778 -0.028528 -4.869216 -37.678663 -0.000001 0.000002 0.000001 -4.437756 3.949354 -35.039974 -1.071360 -0.662515 -36.362728 0.000000 -0.000000 0.000002 -8.821960 8.287597 -39.002351 -0.020611 -0.046092 -44.237940 0.000001 0.000002 -0.000002 -0.000002 0.000001 0.000001 0.342344 1.795741 -0.893506 -24.751371 7.180551 71.740714 -48.112655 32.137584 99.167585 38.907957 -11.885079 19.751206 24.918357 -21.323384 30.343040 9.041916 8.262102 -18.001799 -0.000002 0.000002 0.000001 -0.070693 -3.035217 61.424212 0.006455 4.395157 66.609180 0.000001 0.000001 -0.000001 -1.235394 -0.119481 68.274277 -0.077278 4.902855 84.501878 -0.000001 -0.000000 -0.000004 0.883164 -4.613425 79.192943 -0.717774 1.136477 73.255753 -0.000000 -0.000001 -0.000001 -3.944542 0.099981 86.764781 -0.029785 0.060124 54.415144 -0.000001 0.000001 -0.000001 -0.000002 0.000000 0.000000 0.000000 0.000000 -0.000000 0.000000 -0.000000 -0.000000 0.000000 0.000000 -0.000000 0.000000 0.000000 -0.000000 0.000000 0.000000 -0.000000 0.000000 -0.000000 -0.000000 0.000000 0.000000 -0.000000 0.000000 0.000000 -0.000000 0.000000 0.000000 -0.000000 0.000000 -0.000000 -0.000000 -0.000002 -0.000000 0.000000 -0.000002 -0.000000 0.000000 -0.000002 -0.000000 0.000000 
